<?xml version="1.0" encoding="UTF-8"?>
<svg version="1.1" xmlns="http://www.w3.org/2000/svg" width="512" height="512">
<path d="M0 0 C1.01790619 0.00215515 2.03581238 0.0043103 3.08456421 0.00653076 C17.69363523 0.05620146 32.02575853 0.30709809 46.375 3.3125 C47.34985352 3.51117676 48.32470703 3.70985352 49.32910156 3.91455078 C97.7109774 14.03517194 141.69928269 35.9516877 177.375 70.3125 C178.3640332 71.26068604 178.3640332 71.26068604 179.37304688 72.22802734 C188.86130305 81.37247479 197.6012044 90.66984009 205.375 101.3125 C206.23306152 102.46355017 207.09113451 103.61459177 207.94921875 104.765625 C213.98736829 112.95680614 219.34595521 121.47054105 224.375 130.3125 C224.73948242 130.94430176 225.10396484 131.57610352 225.47949219 132.22705078 C247.08534998 169.97532572 256.85198095 212.74189997 256.6875 255.9375 C256.68534485 256.95540619 256.6831897 257.97331238 256.68096924 259.02206421 C256.63129854 273.63113523 256.38040191 287.96325853 253.375 302.3125 C253.07698486 303.77478027 253.07698486 303.77478027 252.77294922 305.26660156 C242.65232806 353.6484774 220.7358123 397.63678269 186.375 433.3125 C185.74287598 433.97185547 185.11075195 434.63121094 184.45947266 435.31054688 C175.31502521 444.79880305 166.01765991 453.5387044 155.375 461.3125 C154.22394983 462.17056152 153.07290823 463.02863451 151.921875 463.88671875 C143.73224019 469.92427396 135.22961724 475.30707302 126.375 480.3125 C125.66778809 480.7146875 124.96057617 481.116875 124.23193359 481.53125 C101.09654164 494.5566741 75.92537591 503.30551461 49.9375 508.625 C49.21860596 508.77235596 48.49971191 508.91971191 47.7590332 509.0715332 C33.08339502 511.86090125 18.55831162 512.66142619 3.64770508 512.62817383 C0.70811513 512.6250221 -2.2304558 512.64854926 -5.16992188 512.67382812 C-18.54306192 512.71848737 -31.43916711 511.51301542 -44.625 509.3125 C-46.33055054 509.03031616 -46.33055054 509.03031616 -48.07055664 508.74243164 C-91.33802759 500.97044532 -132.38793216 480.98345309 -165.625 452.3125 C-166.37007813 451.67828125 -167.11515625 451.0440625 -167.8828125 450.390625 C-181.38779833 438.57948485 -194.05918743 425.82889772 -204.625 411.3125 C-205.48149066 410.16255169 -206.33826433 409.01281411 -207.1953125 407.86328125 C-213.23534209 399.67315742 -218.61867614 391.16870382 -223.625 382.3125 C-224.0271875 381.60528809 -224.429375 380.89807617 -224.84375 380.16943359 C-237.8691741 357.03404164 -246.61801461 331.86287591 -251.9375 305.875 C-252.08485596 305.15610596 -252.23221191 304.43721191 -252.3840332 303.6965332 C-255.35789088 288.05024391 -255.99800362 272.57681954 -255.9375 256.6875 C-255.93534485 255.66959381 -255.9331897 254.65168762 -255.93096924 253.60293579 C-255.88129854 238.99386477 -255.63040191 224.66174147 -252.625 210.3125 C-252.42632324 209.33764648 -252.22764648 208.36279297 -252.02294922 207.35839844 C-241.90232806 158.9765226 -219.9858123 114.98821731 -185.625 79.3125 C-184.99287598 78.65314453 -184.36075195 77.99378906 -183.70947266 77.31445312 C-174.56502521 67.82619695 -165.26765991 59.0862956 -154.625 51.3125 C-153.47394983 50.45443848 -152.32290823 49.59636549 -151.171875 48.73828125 C-142.98224019 42.70072604 -134.47961724 37.31792698 -125.625 32.3125 C-124.91778809 31.9103125 -124.21057617 31.508125 -123.48193359 31.09375 C-100.34654164 18.0683259 -75.17537591 9.31948539 -49.1875 4 C-48.46860596 3.85264404 -47.74971191 3.70528809 -47.0090332 3.5534668 C-31.36274391 0.57960912 -15.88931954 -0.06050362 0 0 Z " fill="#03B8FF" transform="translate(255.625,-0.3125)"/>
<path d="M0 0 C20.0899745 13.26181096 30.7739807 37.85674693 35.5859375 60.70703125 C36.47388206 65.73871708 36.693629 70.53789223 36.6484375 75.64453125 C36.64392578 76.32837891 36.63941406 77.01222656 36.63476562 77.71679688 C36.6231331 79.38024729 36.60520444 81.04365175 36.5859375 82.70703125 C37.43752441 82.96983887 38.28911133 83.23264648 39.16650391 83.50341797 C42.71258548 84.75161032 45.94140629 86.27171734 49.296875 87.96484375 C49.90987457 88.27275848 50.52287415 88.58067322 51.15444946 88.8979187 C53.09187408 89.87218188 55.0264251 90.85200042 56.9609375 91.83203125 C58.28236538 92.49776655 59.60397826 93.16313478 60.92578125 93.828125 C64.14798275 95.45018948 67.36763343 97.07724499 70.5859375 98.70703125 C70.60052002 98.09706299 70.61510254 97.48709473 70.63012695 96.85864258 C70.70488525 94.07832061 70.80145232 91.29916301 70.8984375 88.51953125 C70.92099609 87.55982422 70.94355469 86.60011719 70.96679688 85.61132812 C71.30581375 76.70443022 71.30581375 76.70443022 74.5859375 72.70703125 C78.30508048 69.53482106 81.65441372 69.23742797 86.37109375 69.42578125 C89.69434442 69.84778134 91.86241538 70.76165831 94.5859375 72.70703125 C97.46723127 77.31043341 97.99791353 81.20178814 97.87890625 86.51171875 C97.87466141 87.23569855 97.87041656 87.95967834 97.86604309 88.70559692 C97.84936722 90.99813412 97.81173831 93.28976371 97.7734375 95.58203125 C97.75837621 97.14451847 97.74469034 98.7070196 97.73242188 100.26953125 C97.69950043 104.0823763 97.64779752 107.89455036 97.5859375 111.70703125 C98.4214917 111.9606543 99.2570459 112.21427734 100.11791992 112.47558594 C103.93922819 113.83247991 107.48092085 115.55172808 111.07421875 117.41015625 C111.77685349 117.77042908 112.47948822 118.1307019 113.20341492 118.50189209 C114.68448972 119.26294051 116.16443747 120.02618588 117.64331055 120.79150391 C119.8777286 121.94632818 122.11724966 123.0907613 124.35742188 124.234375 C141.01482323 132.78520688 141.01482323 132.78520688 145.5859375 136.70703125 C146.09527328 137.13310165 146.60460907 137.55917206 147.12937927 137.99815369 C150.83929139 141.58636291 152.00496037 144.39036831 152.34643555 149.54711914 C152.37910821 151.84107596 152.37762071 154.1356937 152.34765625 156.4296875 C152.35270927 158.25795326 152.35270927 158.25795326 152.35786438 160.12315369 C152.35756615 162.69257845 152.34237549 165.26203932 152.31323242 167.83129883 C152.27352995 171.76038257 152.29254697 175.68609439 152.31835938 179.61523438 C152.31080081 182.11589849 152.29984791 184.61655512 152.28515625 187.1171875 C152.29214035 188.28919205 152.29912445 189.46119659 152.30632019 190.66871643 C152.14954535 199.73509159 152.14954535 199.73509159 149.16723633 203.43139648 C145.86207109 206.34518114 144.44723915 206.83215802 140.16940308 206.82728577 C138.77694366 206.82934776 138.77694366 206.82934776 137.35635376 206.83145142 C136.33496307 206.82785614 135.31357239 206.82426086 134.26123047 206.82055664 C133.18804565 206.82070267 132.11486084 206.82084869 131.00915527 206.82099915 C127.44879155 206.82030042 123.88847963 206.81250986 120.328125 206.8046875 C117.86475656 206.80282318 115.40138774 206.80139934 112.9380188 206.80039978 C106.44426455 206.79657571 99.95053255 206.78674636 93.45678711 206.7756958 C86.83447572 206.76547931 80.21216074 206.76090165 73.58984375 206.75585938 C60.58853216 206.74512401 47.58723601 206.72824025 34.5859375 206.70703125 C34.51789382 207.32647141 34.44985014 207.94591158 34.37974453 208.58412266 C34.24536024 209.80180285 34.24536024 209.80180285 34.10826111 211.04408264 C33.97525809 212.25168039 33.97525809 212.25168039 33.83956814 213.48367405 C33.57588115 215.79518642 33.26363386 218.0923659 32.90234375 220.390625 C32.78028564 221.16817139 32.65822754 221.94571777 32.5324707 222.74682617 C32.40573975 223.53806885 32.27900879 224.32931152 32.1484375 225.14453125 C32.01719482 225.97637939 31.88595215 226.80822754 31.75073242 227.6652832 C30.95856928 232.61642397 30.08333547 237.526869 28.91796875 242.40625 C28.80839844 243.16550781 28.69882812 243.92476562 28.5859375 244.70703125 C28.30363281 246.61548828 28.30363281 246.61548828 28.015625 248.5625 C28.05610067 251.26621226 28.29094766 252.36176403 30.06420898 254.43725586 C32.26599756 256.21328865 34.53345182 257.77980895 36.8984375 259.33203125 C38.63978192 260.54230861 40.38065348 261.75326654 42.12109375 262.96484375 C43.02230957 263.57875977 43.92352539 264.19267578 44.85205078 264.82519531 C49.25250583 267.85419223 53.54068417 271.03151896 57.8359375 274.20703125 C58.60848877 274.76986816 59.38104004 275.33270508 60.17700195 275.91259766 C72.81670218 285.16856061 72.81670218 285.16856061 74.5859375 288.70703125 C74.70064305 290.1860801 74.755328 291.67001606 74.77880859 293.15332031 C74.80290298 294.53550751 74.80290298 294.53550751 74.82748413 295.94561768 C74.87195465 300.16670002 74.91300896 304.38762479 74.93603516 308.60888672 C74.95258425 310.83392809 74.97986023 313.05891653 75.01806641 315.28369141 C75.07289433 318.49279343 75.09471986 321.70064861 75.109375 324.91015625 C75.14337906 326.39639496 75.14337906 326.39639496 75.17807007 327.91265869 C75.1641826 332.46411848 75.11102658 335.6899894 72.17822266 339.31933594 C68.20862353 342.97564404 65.49118057 342.85732725 60.3177948 342.8609314 C59.18121216 342.86750478 59.18121216 342.86750478 58.02166826 342.87421095 C55.46911427 342.88762245 52.91659483 342.89378305 50.36401367 342.89990234 C48.53934065 342.9078014 46.71466919 342.91607023 44.88999939 342.92468262 C38.8863169 342.95092335 32.88262736 342.96621133 26.87890625 342.98046875 C24.81427824 342.9858274 22.74965027 342.99120491 20.68502235 342.9966011 C12.0988777 343.01823197 3.51273495 343.03696998 -5.07343006 343.0482235 C-17.39006702 343.06447111 -29.70638891 343.09766631 -42.02290708 343.15462434 C-50.67688183 343.19328448 -59.33077217 343.21285147 -67.98483104 343.21814406 C-73.15673077 343.22180263 -78.32829462 343.23387765 -83.50010109 343.2662468 C-88.36503737 343.29625867 -93.22943334 343.3026639 -98.09444237 343.29086304 C-99.88069037 343.29064173 -101.66696294 343.29899383 -103.453125 343.31651688 C-105.89106058 343.33913359 -108.3270244 343.3309502 -110.76496887 343.31503296 C-111.47275681 343.32891505 -112.18054474 343.34279713 -112.9097808 343.35709989 C-116.77364454 343.29489084 -118.29825531 342.80339542 -121.31117249 340.29632092 C-124.34344497 336.56268209 -125.65941411 334.11272158 -125.6887207 329.29321289 C-125.69825272 328.42874039 -125.70778473 327.56426788 -125.71760559 326.67359924 C-125.71669418 325.74748337 -125.71578278 324.82136749 -125.71484375 323.8671875 C-125.71912888 322.90807968 -125.723414 321.94897186 -125.72782898 320.96080017 C-125.73356684 318.93424264 -125.73407655 316.90766452 -125.72973633 314.88110352 C-125.72657757 311.78430973 -125.7500383 308.68847251 -125.77539062 305.59179688 C-125.77766382 303.62109495 -125.77836702 301.65039047 -125.77734375 299.6796875 C-125.7865535 298.75559586 -125.79576324 297.83150421 -125.80525208 296.87940979 C-125.77026593 292.00609659 -125.6257144 288.63784502 -122.4140625 284.70703125 C-119.76171875 282.55859375 -119.76171875 282.55859375 -116.4765625 280.33203125 C-115.22084948 279.46615606 -113.967061 278.59748557 -112.71484375 277.7265625 C-112.03115723 277.2517041 -111.3474707 276.7768457 -110.64306641 276.28759766 C-105.57409248 272.69323433 -100.64772385 268.90162137 -95.69555664 265.14892578 C-90.0248181 260.8677211 -84.26035303 256.7451189 -78.4140625 252.70703125 C-79.32581792 244.31473704 -80.99760213 236.07667749 -82.59765625 227.79296875 C-82.81550781 226.643125 -83.03335938 225.49328125 -83.2578125 224.30859375 C-83.45568359 223.28072754 -83.65355469 222.25286133 -83.85742188 221.19384766 C-84.32178383 218.28506805 -84.66386404 215.41861274 -84.94885254 212.48910522 C-85.08053707 211.14411233 -85.08053707 211.14411233 -85.2148819 209.77194786 C-85.2806115 209.09052538 -85.34634109 208.4091029 -85.4140625 207.70703125 C-85.97028856 207.70648648 -86.52651463 207.70594172 -87.09959602 207.70538044 C-100.6461341 207.6904003 -114.19233937 207.64758821 -127.73869514 207.57494068 C-134.28971054 207.54064754 -140.84049215 207.515557 -147.39160156 207.51147461 C-153.71361854 207.50719679 -160.0351079 207.47877574 -166.3569603 207.43359947 C-168.76905113 207.42060814 -171.18120505 207.41632253 -173.59332657 207.42087746 C-176.97181447 207.42577146 -180.34875325 207.39974132 -183.72705078 207.36645508 C-185.22353905 207.37939354 -185.22353905 207.37939354 -186.7502594 207.39259338 C-191.26074547 207.31808006 -194.42660523 207.18848996 -198.01950073 204.29081726 C-201.40459692 200.63822233 -201.54679673 198.94623864 -201.60693359 194.06738281 C-201.63102798 192.29479095 -201.63102798 192.29479095 -201.65560913 190.48638916 C-201.69999051 185.07457953 -201.7415711 179.66291602 -201.76416016 174.25097656 C-201.77748525 171.39518092 -201.80530932 168.54010227 -201.84619141 165.68457031 C-201.90506578 161.57214322 -201.92282996 157.46048292 -201.9375 153.34765625 C-201.96016937 152.07247131 -201.98283875 150.79728638 -202.00619507 149.48345947 C-201.98262126 139.60461945 -201.98262126 139.60461945 -199.19824219 136.03540039 C-196.62140248 133.88042667 -194.36091998 132.26784414 -191.34375 130.8125 C-190.37308594 130.33586914 -189.40242188 129.85923828 -188.40234375 129.36816406 C-186.86126953 128.63871582 -186.86126953 128.63871582 -185.2890625 127.89453125 C-183.70544922 127.12447754 -183.70544922 127.12447754 -182.08984375 126.33886719 C-178.87184313 124.77924053 -175.64447581 123.24075717 -172.4140625 121.70703125 C-170.4790929 120.7814042 -168.54419303 119.85563135 -166.609375 118.9296875 C-162.21983892 116.83616082 -157.82049036 114.76474992 -153.4140625 112.70703125 C-153.39947998 111.67296143 -153.38489746 110.6388916 -153.36987305 109.57348633 C-153.31175368 105.72467043 -153.23452227 101.87643126 -153.15161133 98.02807617 C-153.11842595 96.36476017 -153.09037416 94.70133329 -153.06762695 93.0378418 C-153.03396251 90.64193626 -152.9816431 88.2470409 -152.92578125 85.8515625 C-152.91939133 85.11178665 -152.9130014 84.3720108 -152.90641785 83.6098175 C-152.78027457 79.14666879 -152.12926095 76.27608652 -149.4140625 72.70703125 C-145.69491952 69.53482106 -142.34558628 69.23742797 -137.62890625 69.42578125 C-134.30565558 69.84778134 -132.13758462 70.76165831 -129.4140625 72.70703125 C-125.94615005 77.95399099 -126.04881796 82.52960185 -126.2265625 88.58203125 C-126.24686523 89.90074219 -126.24686523 89.90074219 -126.26757812 91.24609375 C-126.30269627 93.40000677 -126.35649556 95.55360129 -126.4140625 97.70703125 C-125.49592773 97.2881665 -124.57779297 96.86930176 -123.63183594 96.43774414 C-120.21915913 94.88191844 -116.8044697 93.33055434 -113.38916016 91.78051758 C-111.91237152 91.10952989 -110.43612857 90.43733982 -108.96044922 89.76391602 C-106.83704287 88.79515655 -104.71169999 87.83076381 -102.5859375 86.8671875 C-101.92849548 86.56611588 -101.27105347 86.26504425 -100.59368896 85.95484924 C-97.5730318 84.59038489 -94.67720965 83.34312932 -91.4140625 82.70703125 C-91.44886719 81.78664063 -91.48367187 80.86625 -91.51953125 79.91796875 C-91.71552485 70.75293489 -90.78894276 62.62054287 -88.4140625 53.70703125 C-88.14722656 52.66160156 -87.88039063 51.61617187 -87.60546875 50.5390625 C-82.27872042 31.4811407 -71.58751454 9.73367701 -53.84375 -0.46875 C-36.30794213 -9.74778735 -17.27696429 -10.17311221 0 0 Z " fill="#FCFEFF" transform="translate(283.4140625,87.29296875)"/>
<path d="M0 0 C2.94346781 1.47998662 5.60104724 3.34991691 8.33984375 5.17578125 C8.33984375 5.83578125 8.33984375 6.49578125 8.33984375 7.17578125 C8.99984375 7.17578125 9.65984375 7.17578125 10.33984375 7.17578125 C11.8771472 9.27182957 13.27831408 11.35064266 14.65234375 13.55078125 C15.05606201 14.19128418 15.45978027 14.83178711 15.87573242 15.49169922 C26.78858051 33.0163332 30.64973713 49.95842852 30.67578125 70.46875 C30.6838942 72.04777735 30.69241276 73.62680267 30.7013092 75.20582581 C30.72431616 80.25835777 30.72140956 85.3107138 30.71484375 90.36328125 C30.71445728 91.2234938 30.71407082 92.08370636 30.71367264 92.96998596 C30.69945378 118.03479302 30.32581684 142.77419527 26.70751953 167.61975098 C26.2953216 170.48529295 25.90240091 173.35312619 25.51171875 176.22167969 C20.12879483 215.6676804 20.12879483 215.6676804 16.91796875 229.36279297 C15.74013412 235.09379406 15.12003647 239.95347203 17.984375 245.171875 C20.55233149 248.44676479 23.02764993 250.40212706 26.46484375 252.73828125 C27.71809079 253.60323594 28.97066115 254.46917166 30.22265625 255.3359375 C31.22087402 256.02067139 31.22087402 256.02067139 32.23925781 256.71923828 C36.75973975 259.85373331 41.20906028 263.0931737 45.625 266.37304688 C49.75650999 269.42012438 53.83168656 272.14340066 58.43017578 274.43774414 C61.34847733 276.30308999 63.79794676 278.82317446 66.33984375 281.17578125 C66.33984375 287.77578125 66.33984375 294.37578125 66.33984375 301.17578125 C16.83984375 301.17578125 -32.66015625 301.17578125 -83.66015625 301.17578125 C-83.66015625 281.17578125 -83.66015625 281.17578125 -80.2421875 276.72265625 C-77.96972656 275.25195312 -77.96972656 275.25195312 -75.47265625 273.92578125 C-73.73182794 272.83086211 -71.99364408 271.73172984 -70.2578125 270.62890625 C-68.88713623 269.80229492 -68.88713623 269.80229492 -67.48876953 268.95898438 C-62.55807949 265.85059838 -58.01131913 262.24605119 -53.41015625 258.67578125 C-52.54237549 258.01674805 -51.67459473 257.35771484 -50.78051758 256.67871094 C-47.03280127 253.82920763 -43.31025304 250.95012567 -39.67578125 247.95703125 C-39.13727539 247.51423828 -38.59876953 247.07144531 -38.04394531 246.61523438 C-36.39242886 244.8972843 -35.51700755 243.39976426 -34.66015625 241.17578125 C-35.10458876 233.53613957 -36.69129926 226.01308728 -38.03515625 218.48828125 C-40.20671765 206.07802898 -42.0943095 193.67542423 -43.66015625 181.17578125 C-43.81871094 179.93280273 -43.97726563 178.68982422 -44.140625 177.40917969 C-44.58684074 173.90974824 -45.02576069 170.4094545 -45.4604187 166.90856934 C-45.7096616 164.90522839 -45.962282 162.90230851 -46.21508789 160.89941406 C-46.73234733 156.6614104 -47.20578366 152.42088617 -47.66015625 148.17578125 C-47.74989716 147.36975464 -47.83963806 146.56372803 -47.93209839 145.73327637 C-49.93040829 127.29777853 -50.06782631 108.8676513 -50.08569336 90.34619141 C-50.09111916 86.0187533 -50.12908788 81.69222968 -50.17443752 77.36505127 C-50.204441 73.96910442 -50.21142156 70.57337487 -50.21241951 67.17730713 C-50.216558 65.58282172 -50.22872685 63.98833163 -50.24993706 62.39398193 C-50.42467959 48.15843471 -47.50187522 35.50665813 -40.84765625 22.80078125 C-40.34008789 21.81501099 -40.34008789 21.81501099 -39.82226562 20.80932617 C-31.54569245 5.22955684 -18.61737286 -5.76837838 0 0 Z " fill="#03B8FF" transform="translate(264.66015625,106.82421875)"/>
<path d="M0 0 C0.029729 1.42542114 0.029729 1.42542114 0.06005859 2.87963867 C0.53733308 27.02029859 0.53733308 27.02029859 2.5 51.07421875 C3.20622366 58.03162531 3.56377879 65.02046069 4 72 C-25.37 72 -54.74 72 -85 72 C-85 62.43 -85 52.86 -85 43 C-74.36258846 36.90495194 -63.62746516 31.19554911 -52.63537598 25.77081299 C-48.45929779 23.70943016 -44.29014912 21.63413453 -40.12109375 19.55859375 C-38.91382126 18.95791077 -38.91382126 18.95791077 -37.68215942 18.34509277 C-29.62519579 14.32877687 -21.6591391 10.15058482 -13.71728516 5.91210938 C-11.13657308 4.54140419 -8.54157554 3.20071118 -5.9375 1.875 C-4.83728516 1.31425781 -4.83728516 1.31425781 -3.71484375 0.7421875 C-2 0 -2 0 0 0 Z " fill="#05B8FF" transform="translate(191,197)"/>
<path d="M0 0 C2.75534717 0.61220185 5.11973175 1.43545566 7.64086914 2.69897461 C8.34072433 3.04738403 9.04057953 3.39579346 9.76164246 3.75476074 C10.51190201 4.13346313 11.26216156 4.51216553 12.03515625 4.90234375 C12.8216304 5.29562866 13.60810455 5.68891357 14.41841125 6.09411621 C16.96856717 7.37105383 19.51562002 8.65404255 22.0625 9.9375 C23.81520082 10.81727039 25.56796783 11.69690891 27.32080078 12.57641602 C36.40870475 17.14348149 45.47149456 21.74938168 54.44287109 26.54223633 C64.517873 31.91026012 74.77857589 36.91882963 85 42 C85 51.57 85 61.14 85 71 C55.63 71 26.26 71 -4 71 C-2.90395341 51.27116142 -2.90395341 51.27116142 -2 41.6875 C-0.75938881 27.81290954 -0.36649358 13.92079686 0 0 Z " fill="#03B8FF" transform="translate(323,199)"/>
</svg>
